<svg width="20" height="17" viewBox="0 0 20 17" fill="none" xmlns="http://www.w3.org/2000/svg">
<path d="M19.3333 1.34169C18.5353 1.90459 17.6518 2.33512 16.7167 2.61669C16.2148 2.03962 15.5478 1.6306 14.8059 1.44496C14.0639 1.25933 13.2829 1.30602 12.5684 1.57874C11.8539 1.85145 11.2404 2.33703 10.8108 2.96979C10.3813 3.60255 10.1564 4.35197 10.1667 5.11669V5.95003C8.7022 5.988 7.25106 5.6632 5.94251 5.00456C4.63395 4.34593 3.5086 3.37389 2.66667 2.17503C2.66667 2.17503 -0.666667 9.67503 6.83333 13.0084C5.11711 14.1733 3.07263 14.7575 1 14.675C8.5 18.8417 17.6667 14.675 17.6667 5.09169C17.6659 4.85957 17.6436 4.62802 17.6 4.40003C18.4505 3.56127 19.0507 2.50229 19.3333 1.34169V1.34169Z" stroke="white" stroke-linecap="round" stroke-linejoin="round"/>
</svg>
