<svg width="18" height="18" viewBox="0 0 18 18" fill="none" xmlns="http://www.w3.org/2000/svg">
<path d="M13.1667 0.666504H4.83341C2.53223 0.666504 0.666748 2.53198 0.666748 4.83317V13.1665C0.666748 15.4677 2.53223 17.3332 4.83341 17.3332H13.1667C15.4679 17.3332 17.3334 15.4677 17.3334 13.1665V4.83317C17.3334 2.53198 15.4679 0.666504 13.1667 0.666504Z" stroke="white" stroke-linecap="round" stroke-linejoin="round"/>
<path d="M12.3323 8.47525C12.4351 9.16879 12.3167 9.8771 11.9937 10.4994C11.6708 11.1218 11.1599 11.6264 10.5336 11.9416C9.90736 12.2569 9.19765 12.3666 8.50543 12.2552C7.81321 12.1438 7.17374 11.817 6.67797 11.3212C6.18221 10.8255 5.85539 10.186 5.744 9.49376C5.63261 8.80154 5.74233 8.09183 6.05755 7.46556C6.37276 6.8393 6.87743 6.32837 7.49976 6.00545C8.1221 5.68254 8.8304 5.56407 9.52394 5.66692C10.2314 5.77182 10.8863 6.10147 11.392 6.60717C11.8977 7.11288 12.2274 7.76782 12.3323 8.47525Z" stroke="white" stroke-linecap="round" stroke-linejoin="round"/>
<path d="M13.5826 4.41681H13.5914" stroke="white" stroke-linecap="round" stroke-linejoin="round"/>
</svg>
