<svg width="18" height="17" viewBox="0 0 18 17" fill="none" xmlns="http://www.w3.org/2000/svg">
<path d="M12.3341 5.66693C13.6602 5.66693 14.932 6.19372 15.8696 7.1314C16.8073 8.06908 17.3341 9.34085 17.3341 10.6669V16.5003H14.0008V10.6669C14.0008 10.2249 13.8252 9.80098 13.5126 9.48842C13.2001 9.17586 12.7761 9.00026 12.3341 9.00026C11.8921 9.00026 11.4682 9.17586 11.1556 9.48842C10.843 9.80098 10.6674 10.2249 10.6674 10.6669V16.5003H7.33411V10.6669C7.33411 9.34085 7.86089 8.06908 8.79857 7.1314C9.73625 6.19372 11.008 5.66693 12.3341 5.66693Z" stroke="white" stroke-linecap="round" stroke-linejoin="round"/>
<path d="M4.00106 6.49976H0.667725V16.4998H4.00106V6.49976Z" stroke="white" stroke-linecap="round" stroke-linejoin="round"/>
<path d="M2.33439 3.99984C3.25487 3.99984 4.00106 3.25365 4.00106 2.33317C4.00106 1.4127 3.25487 0.666504 2.33439 0.666504C1.41392 0.666504 0.667725 1.4127 0.667725 2.33317C0.667725 3.25365 1.41392 3.99984 2.33439 3.99984Z" stroke="white" stroke-linecap="round" stroke-linejoin="round"/>
</svg>
